<?xml version="1.0" standalone="no"?>
<!DOCTYPE svg PUBLIC "-//W3C//DTD SVG 20010904//EN"
 "http://www.w3.org/TR/2001/REC-SVG-20010904/DTD/svg10.dtd">
<svg version="1.0" xmlns="http://www.w3.org/2000/svg"
 width="500.000000pt" height="500.000000pt" viewBox="0 0 500.000000 500.000000"
 preserveAspectRatio="xMidYMid meet">

<g transform="translate(0.000000,500.000000) scale(0.100000,-0.100000)"
fill="#000000" stroke="none">
<path d="M2730 3031 c-48 -95 -62 -233 -24 -248 8 -3 11 -10 8 -15 -4 -6 -9
-6 -13 -1 -3 5 -14 1 -23 -8 -15 -16 -15 -19 0 -31 9 -7 13 -8 9 -2 -9 16 35
34 56 22 10 -5 17 -6 15 -1 -1 4 2 49 7 98 5 61 10 83 16 70 11 -29 11 -133
-1 -140 -18 -11 -11 -44 13 -55 21 -10 21 -10 3 4 -11 9 -16 21 -12 32 5 13 9
14 20 4 21 -16 37 18 43 91 5 52 2 67 -25 122 -17 35 -40 71 -51 81 -19 17
-20 17 -41 -23z"/>
<path d="M3042 2897 c-109 -49 -148 -79 -180 -136 -19 -33 -20 -41 -8 -41 8 0
17 8 20 18 10 31 68 83 126 112 69 34 105 46 96 31 -4 -6 -2 -11 3 -11 14 0 0
-108 -21 -162 -9 -23 -12 -25 -24 -13 -16 16 -18 35 -4 35 6 0 10 -6 10 -12 0
-9 3 -9 9 1 5 8 7 20 4 27 -2 6 0 15 6 19 6 3 11 11 11 18 0 6 -6 3 -13 -8 -8
-10 -19 -15 -26 -11 -6 4 -10 4 -9 -1 2 -4 -1 -9 -7 -11 -5 -2 -18 -11 -28
-20 -18 -16 -18 -15 -6 10 6 15 16 25 22 21 6 -3 7 -1 4 4 -7 10 23 56 53 81
13 11 12 12 -5 3 -11 -5 -46 -36 -78 -69 -31 -33 -57 -57 -57 -52 0 5 5 12 10
15 12 7 14 35 2 35 -29 0 -59 -117 -44 -172 8 -30 7 -34 -10 -35 -28 -2 -27
-2 -30 -67 -2 -42 2 -61 13 -70 19 -15 15 -117 -7 -151 -12 -19 -69 -55 -87
-55 -2 0 -3 43 -1 95 3 63 1 95 -6 95 -6 0 -8 4 -5 10 3 6 -1 7 -9 4 -10 -4
-16 -19 -16 -40 0 -19 -4 -34 -10 -34 -5 0 -10 -6 -10 -14 0 -8 -11 -28 -25
-44 -13 -16 -22 -32 -19 -35 7 -6 -37 -32 -49 -29 -5 1 -6 -2 -2 -8 8 -13 39
3 59 32 9 12 16 18 16 13 1 -6 10 7 21 28 11 21 24 35 28 32 12 -7 -5 -79 -31
-128 -12 -23 -21 -48 -20 -54 2 -8 -3 -10 -13 -7 -8 3 -15 1 -15 -4 0 -18 42
-4 70 23 15 14 40 30 56 34 16 5 28 13 27 18 -1 6 7 19 17 28 11 10 20 15 20
10 0 -4 -8 -14 -17 -21 -10 -7 -13 -14 -7 -14 16 0 61 51 73 83 16 43 14 97
-5 104 -13 5 -13 7 -2 14 10 7 11 9 0 9 -7 0 -10 5 -7 10 3 6 -2 10 -12 10
-10 0 -14 4 -8 8 6 4 10 18 10 32 0 21 11 30 63 56 115 57 156 114 171 236 17
134 19 158 13 157 -4 0 -49 -19 -100 -42z m-12 -197 c0 -5 -5 -10 -11 -10 -5
0 -7 5 -4 10 3 6 8 10 11 10 2 0 4 -4 4 -10z m-75 -95 c0 -10 -4 -20 -10 -22
-5 -1 -10 8 -10 22 0 14 5 24 10 22 6 -2 10 -12 10 -22z m-60 -334 c-3 -6 -11
-11 -16 -11 -5 0 -4 6 3 14 14 16 24 13 13 -3z m-131 -63 c-5 -7 -9 -16 -9
-19 0 -9 -35 -41 -35 -33 0 11 44 74 48 69 2 -2 0 -10 -4 -17z"/>
<path d="M2416 2823 c-13 -13 -16 -13 -10 -3 7 13 6 13 -12 0 -38 -29 -55 -50
-48 -62 4 -6 3 -8 -3 -5 -15 9 -35 -17 -27 -36 4 -12 13 -7 41 24 25 28 53 45
97 59 59 20 60 20 19 17 -44 -3 -46 8 -3 16 22 4 22 4 -5 6 -17 0 -39 -7 -49
-16z m-84 -95 c-7 -7 -12 -8 -12 -2 0 14 12 26 19 19 2 -3 -1 -11 -7 -17z"/>
<path d="M1886 2621 c58 -177 78 -201 160 -201 36 0 53 4 49 11 -4 6 -9 8 -12
5 -3 -3 -12 1 -20 9 -8 9 -24 13 -36 9 -16 -3 -30 3 -47 20 -13 15 -19 26 -14
26 5 0 4 4 -2 8 -9 6 -64 156 -64 174 0 19 168 -32 213 -64 19 -14 32 -17 39
-10 21 21 -75 70 -192 97 -116 27 -112 31 -74 -84z"/>
<path d="M2540 2710 c0 -5 -6 -7 -12 -5 -22 8 -131 -30 -133 -45 -2 -12 12
-15 69 -15 39 0 78 -3 86 -6 8 -3 12 -4 8 -2 -5 3 -8 9 -8 14 0 6 5 7 12 3 7
-4 8 -3 4 4 -4 7 -14 12 -22 12 -8 0 -12 -4 -9 -10 3 -6 -1 -7 -9 -4 -13 5
-13 8 -1 20 7 8 23 14 35 14 13 0 19 4 14 12 -4 6 -3 8 3 5 6 -4 30 -9 54 -12
24 -3 48 -10 54 -17 7 -8 6 -9 -5 -4 -8 4 -6 0 4 -8 24 -20 31 -14 16 13 -6
12 -19 21 -30 21 -10 0 -22 5 -25 10 -8 13 -105 13 -105 0z"/>
<path d="M2700 2711 c0 -5 7 -15 17 -22 15 -13 15 -12 4 9 -12 23 -21 28 -21
13z"/>
<path d="M2295 2690 c-4 -6 -3 -16 3 -22 6 -6 12 -6 17 2 4 6 3 16 -3 22 -6 6
-12 6 -17 -2z"/>
<path d="M1929 2652 c5 -10 25 -30 43 -44 50 -39 94 -78 87 -78 -4 0 -23 7
-44 16 -66 27 -60 9 9 -30 38 -20 69 -36 71 -34 6 8 16 62 10 56 -4 -4 -39 20
-79 53 -39 33 -79 65 -89 71 -16 8 -17 7 -8 -10z"/>
<path d="M2217 2617 c-31 -30 -59 -68 -66 -90 -12 -35 -11 -110 2 -147 3 -8 8
-25 12 -37 10 -30 23 -29 23 2 0 13 -4 23 -8 20 -4 -2 -6 26 -4 64 1 48 9 81
25 112 13 24 22 48 21 52 -1 5 2 6 7 3 11 -7 36 22 27 31 -3 3 1 15 11 25 35
39 1 15 -50 -35z m-49 -232 c-3 -3 -9 2 -12 12 -6 14 -5 15 5 6 7 -7 10 -15 7
-18z"/>
<path d="M2583 2635 c0 -8 4 -15 9 -15 5 0 6 -5 2 -12 -4 -6 -3 -8 4 -4 5 3
13 0 15 -6 4 -10 6 -10 6 0 1 7 -7 22 -17 33 -15 15 -19 16 -19 4z"/>
<path d="M2315 2600 c-3 -5 -2 -10 4 -10 5 0 13 5 16 10 3 6 2 10 -4 10 -5 0
-13 -4 -16 -10z"/>
<path d="M2471 2601 c-8 -5 -9 -11 -3 -15 6 -3 13 -2 17 4 3 5 18 7 33 4 44
-11 46 -22 3 -19 -22 1 -45 -2 -53 -7 -8 -5 4 -8 32 -6 56 2 72 -2 88 -24 14
-20 38 -25 26 -6 -4 7 -3 8 4 4 9 -5 9 -12 0 -26 -9 -14 -9 -22 3 -37 8 -10
-2 -5 -21 11 -19 15 -36 24 -38 18 -2 -6 -11 -8 -20 -5 -10 4 -6 -3 8 -14 14
-12 27 -19 30 -17 2 3 -2 9 -10 14 -13 8 -13 10 1 10 16 0 44 -48 34 -58 -3
-3 -5 1 -6 9 -1 8 -4 3 -8 -11 -4 -14 -17 -28 -31 -32 -24 -7 -24 -7 3 -4 25
3 37 -7 20 -17 -5 -2 -2 -2 6 0 9 2 11 -2 7 -14 -5 -13 0 -11 18 6 14 14 24
27 21 29 -3 3 1 12 8 20 7 9 8 17 2 19 -6 2 -9 32 -7 73 l4 70 -29 -2 c-15 -1
-35 -6 -43 -12 -13 -10 -13 -9 -1 6 12 16 10 19 -14 28 -32 12 -65 13 -84 1z
m154 -41 c-3 -5 -12 -10 -18 -10 -7 0 -6 4 3 10 19 12 23 12 15 0z m-12 -155
c4 -8 2 -17 -3 -20 -6 -4 -10 3 -10 14 0 25 6 27 13 6z"/>
<path d="M2876 2588 c3 -5 10 -6 15 -3 13 9 11 12 -6 12 -8 0 -12 -4 -9 -9z"/>
<path d="M2273 2563 c-9 -19 -10 -29 -2 -34 8 -5 8 -8 0 -13 -13 -9 -4 -79 15
-117 17 -34 128 -149 146 -150 7 -1 22 -1 33 0 17 2 17 0 5 -8 -18 -13 -1 -14
19 -2 11 7 9 10 -7 15 -11 4 -24 6 -28 5 -19 -3 -33 2 -49 17 -14 15 -14 17 1
29 16 11 16 12 0 18 -10 4 -14 11 -11 17 3 5 -1 10 -10 10 -9 0 -31 15 -48 32
-18 18 -35 31 -39 30 -5 -1 -8 1 -9 6 0 4 -3 26 -5 50 -3 26 0 49 7 58 9 11 8
14 -7 14 -11 0 -15 3 -8 8 13 9 26 42 16 42 -4 0 -13 -12 -19 -27z m77 -213
c0 -5 8 -11 18 -13 14 -4 14 -5 1 -6 -9 0 -24 8 -34 19 -17 18 -17 20 -2 14 9
-3 17 -10 17 -14z"/>
<path d="M2305 2569 c-4 -6 -5 -12 -2 -15 2 -3 7 2 10 11 7 17 1 20 -8 4z"/>
<path d="M2430 2545 c-11 -13 -10 -14 4 -9 9 3 16 10 16 15 0 13 -6 11 -20 -6z"/>
<path d="M3020 2513 c-40 -4 -90 -22 -90 -32 0 -4 6 -15 13 -24 10 -14 18 -15
47 -7 56 16 69 11 20 -9 -43 -16 -45 -19 -42 -51 5 -44 4 -44 45 -36 47 9 116
61 129 97 7 19 15 28 24 25 8 -3 14 -1 14 4 0 16 -106 38 -160 33z"/>
<path d="M2680 2490 c-13 -11 -21 -23 -17 -26 3 -3 15 4 27 16 28 28 20 36
-10 10z"/>
<path d="M2655 2440 c4 -6 1 -17 -5 -25 -7 -9 -8 -15 -2 -15 10 0 22 23 22 41
0 5 -5 9 -11 9 -5 0 -7 -5 -4 -10z"/>
<path d="M2512 2404 c-7 -8 -8 -14 -3 -14 10 0 25 19 20 25 -2 1 -10 -3 -17
-11z"/>
<path d="M2392 2401 c2 -8 15 -21 29 -30 19 -11 21 -12 9 0 -8 8 -21 21 -29
29 -11 12 -12 12 -9 1z"/>
<path d="M1960 2363 c-48 -21 -125 -87 -160 -139 -17 -23 -30 -45 -30 -47 0
-3 19 -8 43 -12 23 -3 81 -17 129 -31 48 -13 104 -24 125 -24 46 0 108 27 154
67 30 27 76 42 63 22 -3 -5 2 -21 10 -36 9 -16 16 -22 16 -13 1 10 4 9 10 -5
5 -11 9 -14 9 -7 1 7 -6 24 -15 37 -16 25 -12 45 9 45 9 0 9 -2 -1 -8 -17 -11
81 -35 110 -27 18 5 20 4 8 -4 -11 -9 -3 -10 30 -5 53 8 64 14 26 14 -16 0
-25 4 -21 10 4 6 -10 10 -34 10 -47 0 -138 32 -176 62 -14 11 -29 18 -32 14
-4 -3 -1 -6 6 -6 7 0 9 -5 6 -10 -5 -8 -12 -7 -23 2 -15 12 -16 11 -3 -4 7
-10 17 -15 22 -12 5 3 19 2 31 -2 l23 -7 -22 -8 c-14 -5 -38 -3 -64 6 -49 18
-148 19 -219 4 -28 -6 -54 -9 -57 -6 -9 9 127 47 169 47 22 0 38 3 36 8 -2 4
-10 24 -18 45 -14 37 -14 37 -70 36 -30 0 -71 -7 -90 -16z m340 -133 c-8 -5
-19 -10 -25 -10 -5 0 -3 5 5 10 8 5 20 10 25 10 6 0 3 -5 -5 -10z"/>
<path d="M2556 2231 c-4 -5 3 -7 14 -4 23 6 26 13 6 13 -8 0 -17 -4 -20 -9z"/>
<path d="M2540 2200 c0 -5 7 -10 16 -10 8 0 12 5 9 10 -3 6 -10 10 -16 10 -5
0 -9 -4 -9 -10z"/>
<path d="M2620 2100 c-41 -22 -33 -27 9 -5 16 8 31 11 35 8 3 -4 6 -1 6 5 0
16 -9 15 -50 -8z"/>
<path d="M2348 2098 c-9 -23 17 -31 34 -10 12 15 11 16 -4 4 -14 -11 -17 -10
-20 5 -3 16 -4 16 -10 1z"/>
<path d="M2505 2080 c-8 -13 45 -13 65 0 11 7 6 10 -22 10 -20 0 -40 -4 -43
-10z"/>
<path d="M2390 2060 c8 -5 22 -9 30 -9 10 0 8 3 -5 9 -27 12 -43 12 -25 0z"/>
<path d="M2511 2058 c-81 -13 -76 -21 9 -16 80 5 148 27 79 25 -18 0 -58 -4
-88 -9z"/>
</g>
</svg>
